# xmcd CD database file
#
# Track frame offsets:
#	150
#	4532
#	23310
#	40295
#	52082
#	67792
#	81862
#	102460
#	122042
#	129337
#	150482
#
# Disc length: 3205 seconds
#
# Revision: 2
# Processed by: cddbd v1.5.1PL2 Copyright (c) Steve Scherf et al.
# Submitted via: CDex 1.51
#
DISCID=7b0c830b
DTITLE=175R - Songs
DYEAR=2003
DGENRE=Rock
TTITLE0=Inst.
TTITLE1=旅人
TTITLE2=ビューティフルデイズ -Album Version-
TTITLE3=Party
TTITLE4=ハッピーライフ
TTITLE5=さらば恋人
TTITLE6=僕の声 -Album Version-
TTITLE7=空に唄えば
TTITLE8=End Of…
TTITLE9=手紙
TTITLE10=11 PARTY - ISHIISAN NO UTA
EXTD=2003.6 YEAR: 2003
EXTT0=
EXTT1=
EXTT2=
EXTT3=
EXTT4=
EXTT5=
EXTT6=
EXTT7=
EXTT8=
EXTT9=
EXTT10=
PLAYORDER=
